<?xml version="1.0" encoding="us-ascii" standalone="no"?><svg xmlns="http://www.w3.org/2000/svg" xmlns:xlink="http://www.w3.org/1999/xlink" contentStyleType="text/css" height="211px" preserveAspectRatio="none" style="width:713px;height:211px;background:#FFFFFF;" version="1.1" viewBox="0 0 713 211" width="713px" zoomAndPan="magnify"><defs/><g><!--entity Usuario--><g id="elem_Usuario"><ellipse cx="298.5" cy="14" fill="#F1F1F1" rx="8" ry="8" style="stroke:#181818;stroke-width:0.5;"/><path d="M298.5,22 L298.5,49 M285.5,30 L311.5,30 M298.5,49 L285.5,64 M298.5,49 L311.5,64 " fill="none" style="stroke:#181818;stroke-width:0.5;"/><text fill="#000000" font-family="sans-serif" font-size="14" lengthAdjust="spacing" textLength="48" x="274.5" y="80.0332">Usuario</text></g><g id="elem_UC1"><ellipse cx="90.4267" cy="174.2853" fill="#F1F1F1" rx="84.4267" ry="19.2853" style="stroke:#181818;stroke-width:0.5;"/><text fill="#000000" font-family="sans-serif" font-size="14" lengthAdjust="spacing" textLength="125" x="27.9267" y="178.0139">Registro de Usuario</text></g><g id="elem_UC2"><ellipse cx="298.7471" cy="174.5494" fill="#F1F1F1" rx="88.2471" ry="20.0494" style="stroke:#181818;stroke-width:0.5;"/><text fill="#000000" font-family="sans-serif" font-size="14" lengthAdjust="spacing" textLength="134" x="231.7471" y="178.2779">Activaci&#243;n de Cuenta</text></g><g id="elem_UC3"><ellipse cx="564.5966" cy="174.5193" fill="#F1F1F1" rx="143.0966" ry="31.0193" style="stroke:#181818;stroke-width:0.5;"/><text fill="#000000" font-family="sans-serif" font-size="14" lengthAdjust="spacing" textLength="254" x="437.5966" y="178.2478">Solicitud de Nuevo C&#243;digo de Activaci&#243;n</text></g><!--link Usuario to UC1--><g id="link_Usuario_UC1"><path d="M274.23,60.43 C235.55,84.24 165.1801,127.5457 124.0301,152.8657 " fill="none" id="Usuario-to-UC1" style="stroke:#181818;stroke-width:1.0;"/><polygon fill="#181818" points="118.92,156.01,128.6814,154.7003,123.1784,153.3897,124.489,147.8868,118.92,156.01" style="stroke:#181818;stroke-width:1.0;"/></g><!--link Usuario to UC2--><g id="link_Usuario_UC2"><path d="M298.5,83.56 C298.5,106.84 298.5,129.65 298.5,148.29 " fill="none" id="Usuario-to-UC2" style="stroke:#181818;stroke-width:1.0;"/><polygon fill="#181818" points="298.5,154.29,302.5,145.29,298.5,149.29,294.5,145.29,298.5,154.29" style="stroke:#181818;stroke-width:1.0;"/></g><!--link Usuario to UC3--><g id="link_Usuario_UC3"><path d="M322.57,57.08 C364.01,77.02 444.4731,115.7491 501.9531,143.3991 " fill="none" id="Usuario-to-UC3" style="stroke:#181818;stroke-width:1.0;"/><polygon fill="#181818" points="507.36,146,500.9835,138.494,502.8542,143.8325,497.5156,145.7032,507.36,146" style="stroke:#181818;stroke-width:1.0;"/></g><!--SRC=[IqmkoIzI22qkJIpApEVYAYrEJKuiJbLG2afDpomkASfNI4c5oIef91OhX3eR8XGv9fTabYKcPnxUd0TIvroQcbUI25LcX50Md9-JcPnPKfe2KkHNcbgMh-1yU7DAPZhOT2H3e5gDkRYWLYhewjg1hKJb6w7nZRa0]--></g></svg>