<?xml version="1.0" encoding="us-ascii" standalone="no"?><svg xmlns="http://www.w3.org/2000/svg" xmlns:xlink="http://www.w3.org/1999/xlink" contentStyleType="text/css" height="197px" preserveAspectRatio="none" style="width:646px;height:197px;background:#FFFFFF;" version="1.1" viewBox="0 0 646 197" width="646px" zoomAndPan="magnify"><defs/><g><!--entity Usuario--><g id="elem_Usuario"><ellipse cx="295.5" cy="14" fill="#F1F1F1" rx="8" ry="8" style="stroke:#181818;stroke-width:0.5;"/><path d="M295.5,22 L295.5,49 M282.5,30 L308.5,30 M295.5,49 L282.5,64 M295.5,49 L308.5,64 " fill="none" style="stroke:#181818;stroke-width:0.5;"/><text fill="#000000" font-family="sans-serif" font-size="14" lengthAdjust="spacing" textLength="48" x="271.5" y="80.0332">Usuario</text></g><g id="elem_UC1"><ellipse cx="85.4775" cy="167.2955" fill="#F1F1F1" rx="79.4775" ry="18.2955" style="stroke:#181818;stroke-width:0.5;"/><text fill="#000000" font-family="sans-serif" font-size="14" lengthAdjust="spacing" textLength="113" x="27.756" y="171.3709">Agregar al Carrito</text></g><g id="elem_UC2"><ellipse cx="295.63" cy="167.526" fill="#F1F1F1" rx="95.63" ry="21.526" style="stroke:#181818;stroke-width:0.5;"/><text fill="#000000" font-family="sans-serif" font-size="14" lengthAdjust="spacing" textLength="151" x="220.13" y="171.2545">Visualizaci&#243;n del Carrito</text></g><g id="elem_UC3"><ellipse cx="533.2512" cy="167.3502" fill="#F1F1F1" rx="107.2512" ry="23.8502" style="stroke:#181818;stroke-width:0.5;"/><text fill="#000000" font-family="sans-serif" font-size="14" lengthAdjust="spacing" textLength="177" x="444.7512" y="171.0788">Validaci&#243;n de Disponibilidad</text></g><!--link Usuario to UC1--><g id="link_Usuario_UC1"><path d="M271.41,59.38 C232.41,81.85 160.8189,123.1048 119.1789,147.0948 " fill="none" id="Usuario-to-UC1" style="stroke:#181818;stroke-width:1.0;"/><polygon fill="#181818" points="113.98,150.09,123.7752,149.0631,118.3124,147.594,119.7815,142.1312,113.98,150.09" style="stroke:#181818;stroke-width:1.0;"/></g><!--link Usuario to UC2--><g id="link_Usuario_UC2"><path d="M295.5,83.79 C295.5,104.28 295.5,122.72 295.5,139.7 " fill="none" id="Usuario-to-UC2" style="stroke:#181818;stroke-width:1.0;"/><polygon fill="#181818" points="295.5,145.7,299.5,136.7,295.5,140.7,291.5,136.7,295.5,145.7" style="stroke:#181818;stroke-width:1.0;"/></g><!--link Usuario to UC3--><g id="link_Usuario_UC3"><path d="M319.63,57.77 C360.05,78.32 436.5411,117.2116 486.4411,142.5716 " fill="none" id="Usuario-to-UC3" style="stroke:#181818;stroke-width:1.0;"/><polygon fill="#181818" points="491.79,145.29,485.579,137.6465,487.3326,143.0247,481.9544,144.7783,491.79,145.29" style="stroke:#181818;stroke-width:1.0;"/></g><!--SRC=[IqmkoIzI22qkJIpApEVYAYrEJKuiJbLGSamlIarFB598p55mJYmgoYp9Lr98B5O8TJP4g0dB16hBoQnAJCuyl3bF8IKLNQqHabgWmXIuGWMNpEA2_BpCf4oGQ0fKkJ4N5zGX2hgwTc2xKFb6Q7nZBW00]--></g></svg>