<?xml version="1.0" encoding="us-ascii" standalone="no"?><svg xmlns="http://www.w3.org/2000/svg" xmlns:xlink="http://www.w3.org/1999/xlink" contentStyleType="text/css" height="290px" preserveAspectRatio="none" style="width:928px;height:290px;background:#FFFFFF;" version="1.1" viewBox="0 0 928 290" width="928px" zoomAndPan="magnify"><defs/><g><!--entity Administrador--><g id="elem_Administrador"><ellipse cx="445" cy="14" fill="#F1F1F1" rx="8" ry="8" style="stroke:#181818;stroke-width:0.5;"/><path d="M445,22 L445,49 M432,30 L458,30 M445,49 L432,64 M445,49 L458,64 " fill="none" style="stroke:#181818;stroke-width:0.5;"/><text fill="#000000" font-family="sans-serif" font-size="14" lengthAdjust="spacing" textLength="87" x="401.5" y="80.0332">Administrador</text></g><g id="elem_UC1"><ellipse cx="74.7688" cy="164.1538" fill="#F1F1F1" rx="68.7688" ry="16.1538" style="stroke:#181818;stroke-width:0.5;"/><text fill="#000000" font-family="sans-serif" font-size="14" lengthAdjust="spacing" textLength="84" x="29.7688" y="168.6704">Crear Evento</text></g><g id="elem_UC2"><ellipse cx="255.855" cy="164.171" fill="#F1F1F1" rx="76.355" ry="17.671" style="stroke:#181818;stroke-width:0.5;"/><text fill="#000000" font-family="sans-serif" font-size="14" lengthAdjust="spacing" textLength="105" x="200.6233" y="168.6255">Modificar Evento</text></g><g id="elem_UC3"><ellipse cx="445.0069" cy="163.9014" fill="#F1F1F1" rx="77.5069" ry="17.9014" style="stroke:#181818;stroke-width:0.5;"/><text fill="#000000" font-family="sans-serif" font-size="14" lengthAdjust="spacing" textLength="108" x="388.8567" y="168.216">Visualizar Evento</text></g><g id="elem_UC4"><ellipse cx="631.2427" cy="164.1485" fill="#F1F1F1" rx="73.7427" ry="17.1485" style="stroke:#181818;stroke-width:0.5;"/><text fill="#000000" font-family="sans-serif" font-size="14" lengthAdjust="spacing" textLength="98" x="579.2427" y="168.6651">Eliminar Evento</text></g><g id="elem_UC5"><ellipse cx="831.1965" cy="164.2393" fill="#F1F1F1" rx="91.6965" ry="20.7393" style="stroke:#181818;stroke-width:0.5;"/><text fill="#000000" font-family="sans-serif" font-size="14" lengthAdjust="spacing" textLength="142" x="760.1965" y="167.9678">Gestionar Localidades</text></g><g id="elem_UC6"><ellipse cx="830.9661" cy="264.2932" fill="#F1F1F1" rx="86.9661" ry="19.7932" style="stroke:#181818;stroke-width:0.5;"/><text fill="#000000" font-family="sans-serif" font-size="14" lengthAdjust="spacing" textLength="131" x="765.4661" y="268.0217">Controlar Capacidad</text></g><!--link Administrador to UC1--><g id="link_Administrador_UC1"><path d="M401.47,59.32 C328.59,82.47 188.7785,126.8636 119.3285,148.9236 " fill="none" id="Administrador-to-UC1" style="stroke:#181818;stroke-width:1.0;"/><polygon fill="#181818" points="113.61,150.74,123.3986,151.8277,118.3754,149.2263,120.9767,144.2031,113.61,150.74" style="stroke:#181818;stroke-width:1.0;"/></g><!--link Administrador to UC2--><g id="link_Administrador_UC2"><path d="M401.16,72.75 C363.87,95.94 316.7257,125.2523 286.1457,144.2623 " fill="none" id="Administrador-to-UC2" style="stroke:#181818;stroke-width:1.0;"/><polygon fill="#181818" points="281.05,147.43,290.8053,146.0755,285.2964,144.7902,286.5817,139.2813,281.05,147.43" style="stroke:#181818;stroke-width:1.0;"/></g><!--link Administrador to UC3--><g id="link_Administrador_UC3"><path d="M445,83.65 C445,104.56 445,123.45 445,139.71 " fill="none" id="Administrador-to-UC3" style="stroke:#181818;stroke-width:1.0;"/><polygon fill="#181818" points="445,145.71,449,136.71,445,140.71,441,136.71,445,145.71" style="stroke:#181818;stroke-width:1.0;"/></g><!--link Administrador to UC4--><g id="link_Administrador_UC4"><path d="M488.61,73.05 C525.55,96.38 572.0574,125.7655 601.9274,144.6355 " fill="none" id="Administrador-to-UC4" style="stroke:#181818;stroke-width:1.0;"/><polygon fill="#181818" points="607,147.84,601.5275,139.6515,602.7729,145.1696,597.2548,146.4149,607,147.84" style="stroke:#181818;stroke-width:1.0;"/></g><!--link Administrador to UC5--><g id="link_Administrador_UC5"><path d="M488.53,58.75 C560,80.51 696.2001,121.9626 773.0001,145.3426 " fill="none" id="Administrador-to-UC5" style="stroke:#181818;stroke-width:1.0;"/><polygon fill="#181818" points="778.74,147.09,771.295,140.6423,773.9567,145.6338,768.9652,148.2955,778.74,147.09" style="stroke:#181818;stroke-width:1.0;"/></g><!--link UC5 to UC6--><g id="link_UC5_UC6"><path d="M831,184.93 C831,202.25 831,221.16 831,238.27 " fill="none" id="UC5-to-UC6" style="stroke:#181818;stroke-width:1.0;"/><polygon fill="#181818" points="831,244.27,835,235.27,831,239.27,827,235.27,831,244.27" style="stroke:#181818;stroke-width:1.0;"/></g><!--SRC=[RSyz2mCX30RWtLyXjz_G-neBHOukrx7TWre8s4inNeV- -df5i1K78RnvY0deG5wUp0DNvE31a1TYOwk1hMoKj-3b_B9he4O2owiwvEw53DvHbwBBueQyWSDtIVfCPeVnxn8C6Pmj1wHTBAJZC0F6ScBZpwgq1aykCWLFq3jBQ1BYxpxPjiVl8RMqgwPzDHsgwIZYI_KaFW00]--></g></svg>