<?xml version="1.0" encoding="us-ascii" standalone="no"?><svg xmlns="http://www.w3.org/2000/svg" xmlns:xlink="http://www.w3.org/1999/xlink" contentStyleType="text/css" height="287px" preserveAspectRatio="none" style="width:527px;height:287px;background:#FFFFFF;" version="1.1" viewBox="0 0 527 287" width="527px" zoomAndPan="magnify"><defs/><g><!--entity Administrador--><g id="elem_Administrador"><ellipse cx="74" cy="14" fill="#F1F1F1" rx="8" ry="8" style="stroke:#181818;stroke-width:0.5;"/><path d="M74,22 L74,49 M61,30 L87,30 M74,49 L61,64 M74,49 L87,64 " fill="none" style="stroke:#181818;stroke-width:0.5;"/><text fill="#000000" font-family="sans-serif" font-size="14" lengthAdjust="spacing" textLength="87" x="30.5" y="80.0332">Administrador</text></g><!--entity Usuario--><g id="elem_Usuario"><ellipse cx="213" cy="14" fill="#F1F1F1" rx="8" ry="8" style="stroke:#181818;stroke-width:0.5;"/><path d="M213,22 L213,49 M200,30 L226,30 M213,49 L200,64 M213,49 L226,64 " fill="none" style="stroke:#181818;stroke-width:0.5;"/><text fill="#000000" font-family="sans-serif" font-size="14" lengthAdjust="spacing" textLength="48" x="189" y="80.0332">Usuario</text></g><g id="elem_UC1"><ellipse cx="74.0887" cy="160.5177" fill="#F1F1F1" rx="68.0887" ry="16.0177" style="stroke:#181818;stroke-width:0.5;"/><text fill="#000000" font-family="sans-serif" font-size="14" lengthAdjust="spacing" textLength="82" x="30.0887" y="165.0343">Crear Cup&#243;n</text></g><g id="elem_UC2"><ellipse cx="397.2387" cy="44.3477" fill="#F1F1F1" rx="124.7387" ry="27.3477" style="stroke:#181818;stroke-width:0.5;"/><text fill="#000000" font-family="sans-serif" font-size="14" lengthAdjust="spacing" textLength="215" x="289.7387" y="48.0763">Distribuir Cup&#243;n Autom&#225;ticamente</text></g><g id="elem_UC3"><ellipse cx="322.7859" cy="160.3572" fill="#F1F1F1" rx="72.2859" ry="16.8572" style="stroke:#181818;stroke-width:0.5;"/><text fill="#000000" font-family="sans-serif" font-size="14" lengthAdjust="spacing" textLength="94" x="272.7859" y="164.8738">Redimir Cup&#243;n</text></g><g id="elem_UC4"><ellipse cx="322.8945" cy="259.3789" fill="#F1F1F1" rx="97.3945" ry="21.8789" style="stroke:#181818;stroke-width:0.5;"/><text fill="#000000" font-family="sans-serif" font-size="14" lengthAdjust="spacing" textLength="155" x="245.3945" y="263.1074">Registrar Uso del Cup&#243;n</text></g><!--link Administrador to UC1--><g id="link_Administrador_UC1"><path d="M74,83.78 C74,104.48 74,122.88 74,138.27 " fill="none" id="Administrador-to-UC1" style="stroke:#181818;stroke-width:1.0;"/><polygon fill="#181818" points="74,144.27,78,135.27,74,139.27,70,135.27,74,144.27" style="stroke:#181818;stroke-width:1.0;"/></g><!--link Usuario to UC3--><g id="link_Usuario_UC3"><path d="M237.14,70.52 C258.64,92.8 285.2844,120.4117 303.5544,139.3517 " fill="none" id="Usuario-to-UC3" style="stroke:#181818;stroke-width:1.0;"/><polygon fill="#181818" points="307.72,143.67,304.3505,134.4155,304.2487,140.0714,298.5928,139.9695,307.72,143.67" style="stroke:#181818;stroke-width:1.0;"/></g><!--link UC2 to UC3--><g id="link_UC2_UC3"><path d="M379.84,71.94 C365.49,94.04 348.766,119.8068 336.716,138.3768 " fill="none" id="UC2-to-UC3" style="stroke:#181818;stroke-width:1.0;"/><polygon fill="#181818" points="333.45,143.41,341.7045,138.0376,336.1717,139.2157,334.9936,133.6829,333.45,143.41" style="stroke:#181818;stroke-width:1.0;"/></g><!--link UC3 to UC4--><g id="link_UC3_UC4"><path d="M323,177.52 C323,193.88 323,213.36 323,231.36 " fill="none" id="UC3-to-UC4" style="stroke:#181818;stroke-width:1.0;"/><polygon fill="#181818" points="323,237.36,327,228.36,323,232.36,319,228.36,323,237.36" style="stroke:#181818;stroke-width:1.0;"/></g><!--SRC=[NOxD3S8m38NldiBglGT8pqXLc02f0vZ4GfP8Wl8p43DqX2u6ZOBQSdlsUy_-oEGGSRHElAGSoOO8L7TJAXGb09J4XX9ZfoDJH5rUo-mxf8IJFctkTUtBlSWlWcF9mItlB8OS-yojSzuwDxRYvE-cslkFIhNI1BJyF2O7W0CvzlsbGZNsDYluFjrfrVG07m00]--></g></svg>